<svg width="50" height="50" viewBox="0 0 50 50" fill="none" xmlns="http://www.w3.org/2000/svg">
<path d="M21.568 10.98C21.4747 10.7 21.26 10.532 20.924 10.476C20.6067 10.42 20.308 10.42 20.028 10.476C19.748 10.4387 19.6173 10.364 19.636 10.252C19.6733 10.1213 19.7947 10.0373 20 10H26.328C26.5893 10 26.7573 10.056 26.832 10.168C26.9067 10.28 26.7573 10.3547 26.384 10.392C26.1413 10.4107 25.9453 10.448 25.796 10.504C25.6467 10.5413 25.5347 10.644 25.46 10.812C25.404 10.9613 25.376 11.204 25.376 11.54C25.3947 11.8573 25.4507 12.3147 25.544 12.912L28.96 28.368C28.9973 28.592 29.044 28.8253 29.1 29.068C29.156 29.292 29.212 29.5253 29.268 29.768C29.492 28.872 29.744 27.836 30.024 26.66C30.304 25.4653 30.584 24.224 30.864 22.936C31.1627 21.648 31.452 20.3693 31.732 19.1C32.012 17.812 32.264 16.6173 32.488 15.516C32.7307 14.4147 32.936 13.4627 33.104 12.66C33.272 11.8573 33.3933 11.2973 33.468 10.98C33.3747 10.7 33.16 10.532 32.824 10.476C32.488 10.42 32.18 10.42 31.9 10.476C31.62 10.4387 31.4893 10.364 31.508 10.252C31.5453 10.1213 31.6667 10.0373 31.872 10H38.2C38.4613 10 38.6293 10.056 38.704 10.168C38.7787 10.28 38.6293 10.3547 38.256 10.392C38.0133 10.4107 37.8173 10.448 37.668 10.504C37.5187 10.5413 37.4067 10.644 37.332 10.812C37.276 10.9613 37.248 11.204 37.248 11.54C37.2667 11.8573 37.3227 12.3147 37.416 12.912L40.832 28.368C40.9067 28.7413 41 29.1613 41.112 29.628C41.224 30.076 41.3733 30.496 41.56 30.888C41.7467 31.28 41.9893 31.5973 42.288 31.84C42.6053 32.0827 42.9973 32.176 43.464 32.12C43.5947 32.1013 43.6973 32.12 43.772 32.176C43.8467 32.232 43.884 32.2973 43.884 32.372C43.884 32.4467 43.8467 32.512 43.772 32.568C43.716 32.624 43.6133 32.6427 43.464 32.624H36.296C36.0533 32.5867 35.9413 32.5027 35.96 32.372C35.9787 32.2227 36.072 32.1573 36.24 32.176C37.024 32.2507 37.5653 32.0547 37.864 31.588C38.1627 31.1027 38.2187 30.272 38.032 29.096L33.972 11.092C33.86 11.5773 33.7013 12.296 33.496 13.248C33.2907 14.2 33.0573 15.2733 32.796 16.468C32.5347 17.6627 32.2547 18.9413 31.956 20.304C31.676 21.6667 31.3867 22.992 31.088 24.28C30.808 25.568 30.5373 26.7813 30.276 27.92C30.0147 29.0587 29.7907 30.0107 29.604 30.776C29.8093 31.2053 30.0613 31.56 30.36 31.84C30.6587 32.1013 31.0693 32.1947 31.592 32.12C31.7227 32.1013 31.8253 32.12 31.9 32.176C31.9747 32.232 32.012 32.2973 32.012 32.372C32.012 32.4467 31.9747 32.512 31.9 32.568C31.844 32.624 31.7413 32.6427 31.592 32.624H24.424C24.1813 32.5867 24.0693 32.5027 24.088 32.372C24.1067 32.2227 24.2 32.1573 24.368 32.176C25.152 32.2507 25.7027 32.036 26.02 31.532C26.3373 31.028 26.384 30.216 26.16 29.096L22.044 11.064C21.6707 12.688 21.288 14.2933 20.896 15.88C20.5227 17.4667 20.14 19.0253 19.748 20.556C19.0387 23.244 18.2547 25.7827 17.396 28.172C16.5373 30.5427 15.604 32.624 14.596 34.416C13.6067 36.208 12.552 37.6267 11.432 38.672C10.2933 39.7173 9.108 40.2587 7.876 40.296L6 35.088L6.588 34.892C6.868 35.34 7.16667 35.6853 7.484 35.928C7.80133 36.1893 8.128 36.3667 8.464 36.46C8.78133 36.572 9.11733 36.6093 9.472 36.572C9.808 36.5347 10.144 36.4507 10.48 36.32C11.1333 36.0773 11.7587 35.6947 12.356 35.172C12.9533 34.6493 13.5227 33.996 14.064 33.212C15.0347 31.812 15.8933 30.188 16.64 28.34C17.4053 26.492 18.0867 24.5693 18.684 22.572C19.3 20.5747 19.832 18.5773 20.28 16.58C20.7467 14.5827 21.176 12.716 21.568 10.98Z" fill="#F5C8AA"/>
</svg>
